<svg width="32" height="32" viewBox="0 0 32 32" fill="none" xmlns="http://www.w3.org/2000/svg">
<path d="M29 7.33008H3V24.6636H29V7.33008Z" fill="#F0F0F0"/>
<path d="M17.625 7.33008H14.375V14.3717H3V17.6217H14.375V24.6633H17.625V17.6217H29V14.3717H17.625V7.33008Z" fill="#D80027"/>
<path d="M22.9971 19.0112L29.0002 22.3463V19.0112H22.9971Z" fill="#0052B4"/>
<path d="M18.8262 19.0112L29.0001 24.6634V23.0651L21.7032 19.0112H18.8262Z" fill="#0052B4"/>
<path d="M26.2901 24.6636L18.8262 20.5166V24.6636H26.2901Z" fill="#0052B4"/>
<path d="M18.8262 19.0112L29.0001 24.6634V23.0651L21.7032 19.0112H18.8262Z" fill="#F0F0F0"/>
<path d="M18.8262 19.0112L29.0001 24.6634V23.0651L21.7032 19.0112H18.8262Z" fill="#D80027"/>
<path d="M7.58763 19.0112L3 21.5599V19.0112H7.58763Z" fill="#0052B4"/>
<path d="M13.1734 19.73V24.6634H4.29395L13.1734 19.73Z" fill="#0052B4"/>
<path d="M10.2969 19.0112L3 23.0651V24.6634L13.1739 19.0112H10.2969Z" fill="#D80027"/>
<path d="M9.0031 12.9821L3 9.64697V12.9821H9.0031Z" fill="#0052B4"/>
<path d="M13.1739 12.9822L3 7.33008V8.92837L10.2969 12.9822H13.1739Z" fill="#0052B4"/>
<path d="M5.70996 7.33008L13.1739 11.4771V7.33008H5.70996Z" fill="#0052B4"/>
<path d="M13.1739 12.9822L3 7.33008V8.92837L10.2969 12.9822H13.1739Z" fill="#F0F0F0"/>
<path d="M13.1739 12.9822L3 7.33008V8.92837L10.2969 12.9822H13.1739Z" fill="#D80027"/>
<path d="M24.4121 12.9823L28.9997 10.4336V12.9823H24.4121Z" fill="#0052B4"/>
<path d="M18.8262 12.2635V7.33008H27.7056L18.8262 12.2635Z" fill="#0052B4"/>
<path d="M21.7032 12.9822L29.0001 8.92837V7.33008L18.8262 12.9822H21.7032Z" fill="#D80027"/>
</svg>
